<?xml version="1.0" standalone="no"?>
<!DOCTYPE svg PUBLIC "-//W3C//DTD SVG 20010904//EN"
 "http://www.w3.org/TR/2001/REC-SVG-20010904/DTD/svg10.dtd">
<svg version="1.0" xmlns="http://www.w3.org/2000/svg"
 width="825.000000pt" height="825.000000pt" viewBox="0 0 825.000000 825.000000"
 preserveAspectRatio="xMidYMid meet">
<metadata>
Created by potrace 1.14, written by Peter Selinger 2001-2017
</metadata>
<g transform="translate(0.000000,825.000000) scale(0.100000,-0.100000)"
fill="#000000" stroke="none">
<path d="M5115 7237 c-52 -21 -102 -56 -128 -90 -55 -73 -53 -21 -53 -1472 l1
-1340 28 -57 c32 -66 81 -109 150 -132 56 -19 141 -15 192 10 49 23 104 80
128 133 20 46 20 53 21 1401 0 1351 0 1355 -21 1401 -24 53 -76 109 -125 134
-43 21 -154 29 -193 12z"/>
<path d="M2274 6634 c-57 -25 -93 -61 -126 -124 l-23 -45 -1 -1049 c-1 -677 3
-1064 9 -1090 30 -120 141 -199 268 -191 97 6 181 65 222 155 20 44 20 63 21
1085 1 790 -1 1052 -11 1089 -39 157 -209 238 -359 170z"/>
<path d="M4374 6313 c-56 -28 -86 -58 -117 -116 l-22 -42 -2 -910 -2 -910 25
-51 c49 -102 134 -154 244 -149 102 4 164 43 217 132 l28 48 0 920 c0 880 -1
922 -19 958 -26 52 -82 106 -135 129 -62 26 -155 23 -217 -9z"/>
<path d="M5868 6174 c-2 -1 -15 -5 -28 -7 -82 -15 -165 -89 -191 -171 -12 -36
-14 -181 -14 -852 1 -793 1 -810 21 -854 58 -128 192 -185 328 -142 58 19 121
78 149 141 21 45 21 59 22 846 1 440 -3 816 -8 835 -21 88 -79 155 -157 184
-42 16 -115 28 -122 20z"/>
<path d="M3068 5805 c-1 -1 -21 -5 -43 -8 -22 -3 -41 -10 -43 -16 -2 -6 -7 -9
-12 -6 -12 8 -98 -73 -115 -108 -8 -18 -18 -52 -23 -77 -4 -25 -7 -317 -7
-650 l1 -605 22 -46 c46 -94 124 -149 221 -154 86 -4 143 18 201 77 27 27 49
53 48 57 -1 3 5 20 12 36 11 24 13 155 13 660 -1 347 -4 644 -8 660 -17 67
-120 162 -187 171 -18 3 -43 7 -55 9 -12 2 -23 2 -25 0z"/>
<path d="M1610 5731 c-69 -22 -130 -73 -166 -141 -18 -33 -19 -70 -19 -655 l0
-620 27 -45 c55 -94 133 -139 236 -135 119 3 210 75 243 189 10 33 13 1162 4
1210 -15 75 -72 146 -147 181 -48 22 -133 30 -178 16z"/>
<path d="M3680 5454 c-61 -28 -116 -88 -138 -151 -10 -29 -13 -142 -13 -488 0
-247 2 -461 4 -475 11 -75 83 -159 163 -189 137 -52 294 22 337 159 15 49 17
107 16 505 -2 491 -3 498 -60 568 -76 92 -201 121 -309 71z"/>
<path d="M6545 5260 c-84 -18 -150 -75 -188 -159 -18 -41 -20 -69 -21 -375 -1
-240 2 -347 12 -391 27 -126 129 -205 257 -200 114 4 204 70 238 173 23 72 19
750 -5 802 -49 107 -181 174 -293 150z"/>
<path d="M914 4802 c-91 -26 -155 -87 -184 -175 -13 -43 -17 -233 -5 -287 44
-203 305 -278 442 -126 60 66 68 97 68 261 0 164 -4 179 -67 250 -61 70 -167
103 -254 77z"/>
<path d="M174 4743 c-54 -18 -119 -75 -147 -127 -19 -35 -22 -58 -24 -164 -1
-115 0 -127 25 -173 51 -100 151 -155 262 -144 64 6 170 64 170 94 0 6 4 11 8
11 10 0 40 64 47 100 7 35 7 159 0 205 -6 43 -44 114 -77 145 -63 58 -181 82
-264 53z"/>
<path d="M7219 4745 c-69 -22 -133 -84 -159 -153 -12 -31 -20 -72 -18 -89 2
-18 1 -33 -4 -33 -4 0 -6 -6 -3 -12 2 -7 6 -43 9 -80 10 -139 104 -235 237
-243 73 -5 134 15 188 62 70 59 85 99 88 238 2 88 -1 127 -11 147 -8 15 -12
28 -10 31 2 2 -14 24 -36 50 -72 81 -181 113 -281 82z"/>
<path d="M7910 4745 c-58 -19 -113 -64 -148 -123 -26 -45 -27 -53 -27 -177 0
-123 1 -133 27 -175 50 -85 120 -130 211 -135 104 -5 193 42 243 130 27 46 29
58 31 167 2 99 -1 125 -18 165 -53 125 -192 189 -319 148z"/>
<path d="M258 4025 c-2 -2 -24 -5 -50 -8 -69 -8 -148 -71 -188 -151 -21 -42
-19 -171 4 -214 68 -129 226 -183 351 -121 120 60 175 213 122 340 -17 41 -74
102 -116 124 -28 14 -116 36 -123 30z"/>
<path d="M950 4022 c-156 -22 -258 -164 -224 -311 41 -178 231 -259 388 -167
57 33 97 87 114 151 12 42 5 141 -12 177 -31 64 -106 128 -171 143 -29 7 -73
11 -95 7z"/>
<path d="M1639 4019 c-59 -9 -97 -29 -143 -75 -47 -47 -67 -94 -71 -168 -11
-202 200 -336 380 -239 88 47 136 134 131 240 -3 73 -17 109 -64 161 -57 64
-145 94 -233 81z"/>
<path d="M2350 4020 c-65 -8 -115 -36 -160 -88 -148 -168 -28 -427 196 -425
77 0 140 29 190 86 52 60 64 91 66 172 3 151 -138 275 -292 255z"/>
<path d="M3030 4020 c-241 -65 -275 -383 -53 -491 91 -44 217 -23 289 49 105
105 104 273 -3 373 -61 57 -163 87 -233 69z"/>
<path d="M3725 4014 c-110 -27 -184 -117 -193 -232 -6 -88 21 -156 85 -212 87
-76 205 -86 309 -25 78 46 124 137 119 232 -10 167 -160 278 -320 237z"/>
<path d="M4441 4018 c-120 -21 -206 -121 -210 -245 -9 -238 277 -359 443 -187
53 54 76 120 70 198 -11 153 -150 261 -303 234z"/>
<path d="M5152 4018 c-135 -23 -227 -142 -216 -278 18 -217 286 -314 439 -157
62 64 78 104 75 192 -2 66 -32 131 -82 178 -61 57 -136 80 -216 65z"/>
<path d="M5878 4024 c-2 -1 -17 -4 -34 -7 -89 -14 -180 -99 -201 -187 -49
-214 160 -390 360 -302 122 54 185 212 133 335 -36 84 -126 151 -214 160 -23
2 -43 3 -44 1z"/>
<path d="M6530 4013 c-104 -26 -187 -130 -191 -238 -1 -48 1 -62 23 -115 5
-14 10 -27 9 -30 -1 -14 76 -80 116 -100 96 -48 244 -18 306 63 49 65 61 99
61 172 -1 107 -47 182 -141 229 -61 31 -115 37 -183 19z"/>
<path d="M7259 4020 c-120 -21 -210 -121 -215 -240 -3 -72 9 -118 46 -168 122
-168 385 -130 454 65 18 51 14 146 -8 195 -44 101 -168 167 -277 148z"/>
<path d="M7943 4019 c-245 -43 -288 -376 -63 -491 53 -27 153 -29 211 -4 48
20 111 82 134 131 26 53 27 166 3 216 -21 44 -79 104 -121 125 -40 21 -114 31
-164 23z"/>
<path d="M1593 3375 c-80 -37 -124 -106 -125 -194 -1 -184 217 -282 353 -159
90 83 97 215 16 305 -61 67 -161 87 -244 48z"/>
<path d="M2319 3387 c-20 -8 -50 -23 -67 -35 -37 -27 -82 -114 -82 -160 0
-169 174 -276 318 -197 184 100 129 379 -79 400 -34 3 -68 0 -90 -8z"/>
<path d="M2991 3374 c-171 -80 -174 -318 -4 -405 59 -31 128 -32 193 -2 87 40
130 110 127 210 -2 57 -8 77 -32 115 -58 91 -186 128 -284 82z"/>
<path d="M3725 3386 c-47 -23 -63 -40 -84 -86 -65 -145 98 -284 234 -200 44
27 65 62 71 118 7 60 -14 110 -60 146 -44 33 -117 43 -161 22z"/>
<path d="M4406 3379 c-84 -41 -121 -101 -119 -193 2 -46 8 -67 30 -99 40 -57
93 -89 154 -93 84 -4 140 24 187 93 45 66 36 188 -18 243 -65 66 -160 86 -234
49z"/>
<path d="M5140 3393 c-115 -39 -183 -134 -173 -241 11 -124 103 -207 228 -206
135 0 226 97 221 234 -3 74 -31 130 -88 173 -50 38 -139 57 -188 40z"/>
<path d="M5831 3389 c-68 -21 -110 -58 -143 -128 -43 -92 -19 -194 61 -263 49
-42 97 -58 162 -53 143 9 233 133 205 283 -4 23 -12 42 -17 42 -5 0 -9 6 -9
13 0 20 -61 78 -99 94 -46 19 -117 25 -160 12z"/>
<path d="M6549 3390 c-113 -32 -173 -138 -144 -258 10 -43 84 -118 127 -130
51 -14 122 -6 167 19 104 58 132 207 55 299 -52 61 -134 89 -205 70z"/>
<path d="M3764 2963 c-35 -7 -66 -47 -67 -87 -1 -50 45 -99 88 -93 69 9 102
51 91 112 -5 26 -16 41 -39 55 -18 11 -36 19 -42 19 -5 -1 -20 -4 -31 -6z"/>
<path d="M4415 2875 c-126 -67 -120 -245 10 -299 78 -33 173 2 209 77 51 109
-21 230 -140 235 -29 1 -61 -4 -79 -13z"/>
<path d="M1607 2836 c-155 -78 -104 -309 69 -317 136 -6 220 136 150 255 -17
30 -39 50 -69 64 -55 26 -97 25 -150 -2z"/>
<path d="M2304 2842 c-156 -82 -153 -289 6 -360 65 -29 162 -10 216 43 22 21
50 90 53 127 3 49 -37 138 -75 165 -59 41 -148 52 -200 25z"/>
<path d="M3043 2831 c-94 -24 -159 -114 -147 -206 7 -54 21 -82 60 -119 94
-88 244 -60 304 57 15 30 19 105 8 147 -22 80 -138 142 -225 121z"/>
<path d="M5125 2829 c-46 -13 -109 -72 -127 -118 -24 -60 -18 -149 12 -192 34
-48 42 -55 89 -80 54 -28 103 -30 165 -8 88 32 129 88 140 188 5 51 -20 114
-64 158 -55 56 -135 76 -215 52z"/>
<path d="M5820 2824 c-128 -55 -159 -229 -58 -322 24 -22 121 -65 129 -57 2 2
18 5 36 8 17 3 50 15 72 28 51 28 91 102 91 166 0 135 -146 231 -270 177z"/>
<path d="M4450 2444 c-105 -44 -93 -188 18 -210 99 -19 169 98 104 175 -35 41
-78 53 -122 35z"/>
<path d="M2308 2347 c-129 -58 -139 -249 -16 -322 41 -24 132 -26 174 -5 57
30 101 105 99 171 -2 89 -89 170 -179 168 -28 0 -63 -6 -78 -12z"/>
<path d="M5830 2323 c-50 -34 -67 -65 -65 -113 2 -58 14 -84 51 -109 112 -77
246 23 203 151 -24 74 -128 113 -189 71z"/>
<path d="M5115 2290 c-191 -85 -141 -368 67 -376 125 -5 208 77 205 202 -2 47
-8 69 -30 102 -50 76 -160 109 -242 72z"/>
<path d="M4463 2122 c-30 -4 -70 -47 -78 -82 -9 -41 19 -95 59 -114 71 -34
146 16 146 96 0 63 -60 110 -127 100z"/>
<path d="M2330 1878 c-35 -13 -59 -37 -79 -78 -63 -128 101 -262 214 -176 63
49 81 114 49 182 -31 65 -116 99 -184 72z"/>
<path d="M5110 1778 c-56 -38 -81 -84 -79 -143 7 -179 230 -223 314 -62 16 31
11 106 -9 145 -39 76 -157 107 -226 60z"/>
<path d="M5141 1354 c-117 -34 -165 -171 -96 -275 28 -43 96 -79 149 -79 39 0
112 32 134 59 71 87 57 209 -31 269 -51 36 -97 43 -156 26z"/>
</g>
</svg>
