<?xml version="1.0" encoding="UTF-8" standalone="no"?>
<svg
   xmlns:dc="http://purl.org/dc/elements/1.1/"
   xmlns:cc="http://creativecommons.org/ns#"
   xmlns:rdf="http://www.w3.org/1999/02/22-rdf-syntax-ns#"
   xmlns:svg="http://www.w3.org/2000/svg"
   xmlns="http://www.w3.org/2000/svg"
   xmlns:sodipodi="http://sodipodi.sourceforge.net/DTD/sodipodi-0.dtd"
   xmlns:inkscape="http://www.inkscape.org/namespaces/inkscape"
   viewBox="0 0 825.07408 625"
   height="625"
   width="825.0741"
   xml:space="preserve"
   version="1.1"
   id="svg228"
   sodipodi:docname="peaks-logo.svg"
   inkscape:version="0.92.5 (2060ec1f9f, 2020-04-08)"><metadata
   id="metadata232"><rdf:RDF><cc:Work
       rdf:about=""><dc:format>image/svg+xml</dc:format><dc:type
         rdf:resource="http://purl.org/dc/dcmitype/StillImage" /><dc:title></dc:title></cc:Work></rdf:RDF></metadata><sodipodi:namedview
   pagecolor="#ffffff"
   bordercolor="#666666"
   borderopacity="1"
   objecttolerance="10"
   gridtolerance="10"
   guidetolerance="10"
   inkscape:pageopacity="0"
   inkscape:pageshadow="2"
   inkscape:window-width="1920"
   inkscape:window-height="1163"
   id="namedview230"
   showgrid="false"
   inkscape:zoom="0.14765643"
   inkscape:cx="1175.0251"
   inkscape:cy="312.5"
   inkscape:window-x="0"
   inkscape:window-y="0"
   inkscape:window-maximized="1"
   inkscape:current-layer="g222" />
  <defs
   id="defs3359">
    <clipPath
   id="clipPath"
   clipPathUnits="userSpaceOnUse">
      <path
   d="M 0,500 H 1880.037 V 0 H 0 Z"
   id="path2"
   inkscape:connector-curvature="0" />
    </clipPath>
  
    
  
      
    </defs>
  <g
   clip-path="url(#clipPath)"
   id="g222"
   transform="matrix(1.25,0,0,-1.25,1.25e-4,625)">
        <g
   transform="translate(359.272,427.3921)"
   id="g8">
          <path
   style="fill:#223c55;fill-opacity:1;fill-rule:nonzero;stroke:none"
   d="m 0,0 c -11.496,0 -20.815,-9.319 -20.815,-20.815 v -135.268 c 0,-11.497 9.319,-20.816 20.815,-20.816 11.496,0 20.815,9.319 20.815,20.816 V -20.815 C 20.815,-9.319 11.496,0 0,0"
   id="path6"
   inkscape:connector-curvature="0" />
        </g>
        <g
   transform="translate(415.582,500)"
   id="g12">
          <path
   style="fill:#223c55;fill-opacity:1;fill-rule:nonzero;stroke:none"
   d="m 0,0 c -11.496,0 -20.815,-9.319 -20.815,-20.816 v -207.875 c 0,-11.496 9.319,-20.816 20.815,-20.816 11.496,0 20.815,9.32 20.815,20.816 V -20.816 C 20.815,-9.319 11.496,0 0,0"
   id="path10"
   inkscape:connector-curvature="0" />
        </g>
        <g
   transform="translate(303.0742,358.3828)"
   id="g16">
          <path
   style="fill:#223c55;fill-opacity:1;fill-rule:nonzero;stroke:none"
   d="m 0,0 c -11.496,0 -20.815,-9.319 -20.815,-20.815 v -66.259 c 0,-11.496 9.319,-20.816 20.815,-20.816 11.496,0 20.814,9.32 20.814,20.816 v 66.259 C 20.814,-9.319 11.496,0 0,0"
   id="path14"
   inkscape:connector-curvature="0" />
        </g>
        <g
   transform="translate(190.6812,452.8818)"
   id="g20">
          <path
   style="fill:#223c55;fill-opacity:1;fill-rule:nonzero;stroke:none"
   d="m 0,0 c -11.496,0 -20.814,-9.319 -20.814,-20.815 v -160.758 c 0,-11.496 9.318,-20.816 20.814,-20.816 11.498,0 20.815,9.32 20.815,20.816 V -20.815 C 20.815,-9.319 11.498,0 0,0"
   id="path18"
   inkscape:connector-curvature="0" />
        </g>
        <g
   transform="translate(134.4834,379.1982)"
   id="g24">
          <path
   style="fill:#223c55;fill-opacity:1;fill-rule:nonzero;stroke:none"
   d="m 0,0 c -11.496,0 -20.814,-9.318 -20.814,-20.815 v -87.075 c 0,-11.497 9.318,-20.815 20.814,-20.815 11.496,0 20.815,9.318 20.815,20.815 v 87.075 C 20.815,-9.318 11.496,0 0,0"
   id="path22"
   inkscape:connector-curvature="0" />
        </g>
        <g
   transform="translate(78.2876,304.9072)"
   id="g28">
          <path
   style="fill:#223c55;fill-opacity:1;fill-rule:nonzero;stroke:none"
   d="M 0,0 C -11.496,0 -20.814,-9.318 -20.814,-20.814 V -33.6 c 0,-11.495 9.318,-20.814 20.814,-20.814 11.496,0 20.815,9.319 20.815,20.814 v 12.786 C 20.815,-9.318 11.496,0 0,0"
   id="path26"
   inkscape:connector-curvature="0" />
        </g>
        <g
   transform="translate(471.6641,413.9541)"
   id="g32">
          <path
   style="fill:#223c55;fill-opacity:1;fill-rule:nonzero;stroke:none"
   d="m 0,0 c -11.496,0 -20.815,-9.318 -20.815,-20.815 v -121.831 c 0,-11.498 9.319,-20.815 20.815,-20.815 11.496,0 20.815,9.317 20.815,20.815 V -20.815 C 20.815,-9.318 11.496,0 0,0"
   id="path30"
   inkscape:connector-curvature="0" />
        </g>
        <g
   transform="translate(527.8613,341.2563)"
   id="g36">
          <path
   style="fill:#223c55;fill-opacity:1;fill-rule:nonzero;stroke:none"
   d="m 0,0 c -11.496,0 -20.815,-9.319 -20.815,-20.815 v -49.133 c 0,-11.496 9.319,-20.815 20.815,-20.815 11.496,0 20.815,9.319 20.815,20.815 v 49.133 C 20.815,-9.319 11.496,0 0,0"
   id="path34"
   inkscape:connector-curvature="0" />
        </g>
        <g
   transform="translate(246.8784,384.3833)"
   id="g40">
          <path
   style="fill:#223c55;fill-opacity:1;fill-rule:nonzero;stroke:none"
   d="m 0,0 c -11.496,0 -20.815,-9.319 -20.815,-20.815 v -92.26 c 0,-11.496 9.319,-20.815 20.815,-20.815 11.496,0 20.814,9.319 20.814,20.815 v 92.26 C 20.814,-9.319 11.496,0 0,0"
   id="path38"
   inkscape:connector-curvature="0" />
        </g>
        <g
   transform="translate(584.0576,300.6997)"
   id="g44">
          <path
   style="fill:#223c55;fill-opacity:1;fill-rule:nonzero;stroke:none"
   d="m 0,0 c -11.496,0 -20.815,-9.319 -20.815,-20.814 v -8.578 c 0,-11.495 9.319,-20.815 20.815,-20.815 11.496,0 20.815,9.32 20.815,20.815 v 8.578 C 20.815,-9.319 11.496,0 0,0"
   id="path42"
   inkscape:connector-curvature="0" />
        </g>
        <g
   transform="translate(639.2432,300.6997)"
   id="g48">
          <path
   style="fill:#223c55;fill-opacity:1;fill-rule:nonzero;stroke:none"
   d="m 0,0 c -11.495,0 -20.814,-9.319 -20.814,-20.814 v -8.578 c 0,-11.495 9.319,-20.815 20.814,-20.815 11.497,0 20.816,9.32 20.816,20.815 v 8.578 C 20.816,-9.319 11.497,0 0,0"
   id="path46"
   inkscape:connector-curvature="0" />
        </g>
        <g
   transform="translate(20.8149,300.6997)"
   id="g52">
          <path
   style="fill:#223c55;fill-opacity:1;fill-rule:nonzero;stroke:none"
   d="m 0,0 c -11.496,0 -20.815,-9.319 -20.815,-20.814 v -8.578 c 0,-11.495 9.319,-20.815 20.815,-20.815 11.497,0 20.815,9.32 20.815,20.815 v 8.578 C 20.815,-9.319 11.497,0 0,0"
   id="path50"
   inkscape:connector-curvature="0" />
        </g>
        <g
   transform="translate(20.8145,241.915)"
   id="g56">
          <path
   style="fill:#4b677a;fill-opacity:1;fill-rule:nonzero;stroke:none"
   d="m 0,0 c -11.496,0 -20.814,-9.319 -20.814,-20.814 0,-11.496 9.318,-20.815 20.814,-20.815 11.498,0 20.815,9.319 20.815,20.815 C 20.815,-9.319 11.498,0 0,0"
   id="path54"
   inkscape:connector-curvature="0" />
        </g>
        <g
   transform="translate(78.2876,241.915)"
   id="g60">
          <path
   style="fill:#4b677a;fill-opacity:1;fill-rule:nonzero;stroke:none"
   d="m 0,0 c -11.496,0 -20.814,-9.319 -20.814,-20.814 0,-11.496 9.318,-20.815 20.814,-20.815 11.497,0 20.815,9.319 20.815,20.815 C 20.815,-9.319 11.497,0 0,0"
   id="path58"
   inkscape:connector-curvature="0" />
        </g>
        <g
   transform="translate(134.4834,241.915)"
   id="g64">
          <path
   style="fill:#4b677a;fill-opacity:1;fill-rule:nonzero;stroke:none"
   d="m 0,0 c -11.496,0 -20.814,-9.319 -20.814,-20.814 0,-11.496 9.318,-20.815 20.814,-20.815 11.497,0 20.815,9.319 20.815,20.815 C 20.815,-9.319 11.497,0 0,0"
   id="path62"
   inkscape:connector-curvature="0" />
        </g>
        <g
   transform="translate(134.4834,191.7041)"
   id="g68">
          <path
   style="fill:#4b677a;fill-opacity:1;fill-rule:nonzero;stroke:none"
   d="m 0,0 c -9.479,0 -17.161,-7.684 -17.161,-17.161 0,-9.478 7.682,-17.161 17.161,-17.161 9.479,0 17.162,7.683 17.162,17.161 C 17.162,-7.684 9.479,0 0,0"
   id="path66"
   inkscape:connector-curvature="0" />
        </g>
        <g
   transform="translate(134.6245,148.5977)"
   id="g72">
          <path
   style="fill:#4b677a;fill-opacity:1;fill-rule:nonzero;stroke:none"
   d="m 0,0 c -7.523,0 -13.621,-6.099 -13.621,-13.62 0,-7.523 6.098,-13.621 13.621,-13.621 7.523,0 13.622,6.098 13.622,13.621 C 13.622,-6.099 7.523,0 0,0"
   id="path70"
   inkscape:connector-curvature="0" />
        </g>
        <g
   transform="translate(190.6812,241.915)"
   id="g76">
          <path
   style="fill:#4b677a;fill-opacity:1;fill-rule:nonzero;stroke:none"
   d="m 0,0 c -11.496,0 -20.814,-9.319 -20.814,-20.814 0,-11.496 9.318,-20.815 20.814,-20.815 11.498,0 20.815,9.319 20.815,20.815 C 20.815,-9.319 11.498,0 0,0"
   id="path74"
   inkscape:connector-curvature="0" />
        </g>
        <g
   transform="translate(190.9263,191.916)"
   id="g80">
          <path
   style="fill:#4b677a;fill-opacity:1;fill-rule:nonzero;stroke:none"
   d="m 0,0 c -9.537,0 -17.268,-7.731 -17.268,-17.268 0,-9.536 7.731,-17.266 17.268,-17.266 9.538,0 17.268,7.73 17.268,17.266 C 17.268,-7.731 9.538,0 0,0"
   id="path78"
   inkscape:connector-curvature="0" />
        </g>
        <g
   transform="translate(190.6816,148.5977)"
   id="g84">
          <path
   style="fill:#4b677a;fill-opacity:1;fill-rule:nonzero;stroke:none"
   d="m 0,0 c -8.657,0 -15.674,-7.018 -15.674,-15.674 0,-8.656 7.017,-15.674 15.674,-15.674 8.658,0 15.674,7.018 15.674,15.674 C 15.674,-7.018 8.658,0 0,0"
   id="path82"
   inkscape:connector-curvature="0" />
        </g>
        <g
   transform="translate(190.6816,109.0244)"
   id="g88">
          <path
   style="fill:#4b677a;fill-opacity:1;fill-rule:nonzero;stroke:none"
   d="m 0,0 c -8.004,0 -14.492,-6.488 -14.492,-14.492 0,-8.003 6.488,-14.491 14.492,-14.491 8.005,0 14.492,6.488 14.492,14.491 C 14.492,-6.488 8.005,0 0,0"
   id="path86"
   inkscape:connector-curvature="0" />
        </g>
        <g
   transform="translate(190.6816,71.1279)"
   id="g92">
          <path
   style="fill:#4b677a;fill-opacity:1;fill-rule:nonzero;stroke:none"
   d="m 0,0 c -6.477,0 -11.727,-5.251 -11.727,-11.728 0,-6.476 5.25,-11.727 11.727,-11.727 6.478,0 11.728,5.251 11.728,11.727 C 11.728,-5.251 6.478,0 0,0"
   id="path90"
   inkscape:connector-curvature="0" />
        </g>
        <g
   transform="translate(246.877,241.915)"
   id="g96">
          <path
   style="fill:#4b677a;fill-opacity:1;fill-rule:nonzero;stroke:none"
   d="m 0,0 c -11.496,0 -20.814,-9.319 -20.814,-20.814 0,-11.496 9.318,-20.815 20.814,-20.815 11.498,0 20.815,9.319 20.815,20.815 C 20.815,-9.319 11.498,0 0,0"
   id="path94"
   inkscape:connector-curvature="0" />
        </g>
        <g
   transform="translate(246.8774,146.9268)"
   id="g100">
          <path
   style="fill:#4b677a;fill-opacity:1;fill-rule:nonzero;stroke:none"
   d="m 0,0 c -8.493,0 -15.378,-6.885 -15.378,-15.377 0,-8.493 6.885,-15.378 15.378,-15.378 8.495,0 15.379,6.885 15.379,15.378 C 15.379,-6.885 8.495,0 0,0"
   id="path98"
   inkscape:connector-curvature="0" />
        </g>
        <g
   transform="translate(246.877,191.708)"
   id="g104">
          <path
   style="fill:#4b677a;fill-opacity:1;fill-rule:nonzero;stroke:none"
   d="m 0,0 c -9.996,0 -18.099,-8.104 -18.099,-18.1 0,-9.995 8.103,-18.098 18.099,-18.098 9.998,0 18.1,8.103 18.1,18.098 C 18.1,-8.104 9.998,0 0,0"
   id="path102"
   inkscape:connector-curvature="0" />
        </g>
        <g
   transform="translate(303.0728,241.915)"
   id="g108">
          <path
   style="fill:#4b677a;fill-opacity:1;fill-rule:nonzero;stroke:none"
   d="m 0,0 c -11.496,0 -20.814,-9.319 -20.814,-20.814 0,-11.496 9.318,-20.815 20.814,-20.815 11.498,0 20.815,9.319 20.815,20.815 C 20.815,-9.319 11.498,0 0,0"
   id="path106"
   inkscape:connector-curvature="0" />
        </g>
        <g
   transform="translate(303.0732,157.3818)"
   id="g112">
          <path
   style="fill:#4b677a;fill-opacity:1;fill-rule:nonzero;stroke:none"
   d="m 0,0 c -4.105,0 -7.434,-3.328 -7.434,-7.434 0,-4.105 3.329,-7.433 7.434,-7.433 4.106,0 7.434,3.328 7.434,7.433 C 7.434,-3.328 4.106,0 0,0"
   id="path110"
   inkscape:connector-curvature="0" />
        </g>
        <g
   transform="translate(303.0732,191.916)"
   id="g116">
          <path
   style="fill:#4b677a;fill-opacity:1;fill-rule:nonzero;stroke:none"
   d="m 0,0 c -7.191,0 -13.02,-5.829 -13.02,-13.02 0,-7.19 5.829,-13.019 13.02,-13.019 7.191,0 13.02,5.829 13.02,13.019 C 13.02,-5.829 7.191,0 0,0"
   id="path114"
   inkscape:connector-curvature="0" />
        </g>
        <g
   transform="translate(359.0269,241.915)"
   id="g120">
          <path
   style="fill:#4b677a;fill-opacity:1;fill-rule:nonzero;stroke:none"
   d="m 0,0 c -11.496,0 -20.814,-9.319 -20.814,-20.814 0,-11.496 9.318,-20.815 20.814,-20.815 11.497,0 20.815,9.319 20.815,20.815 C 20.815,-9.319 11.497,0 0,0"
   id="path118"
   inkscape:connector-curvature="0" />
        </g>
        <g
   transform="translate(359.0273,89.9463)"
   id="g124">
          <path
   style="fill:#4b677a;fill-opacity:1;fill-rule:nonzero;stroke:none"
   d="m 0,0 c -4.635,0 -8.392,-3.757 -8.392,-8.392 0,-4.634 3.757,-8.392 8.392,-8.392 4.635,0 8.392,3.758 8.392,8.392 C 8.392,-3.757 4.635,0 0,0"
   id="path122"
   inkscape:connector-curvature="0" />
        </g>
        <g
   transform="translate(359.0273,151.3066)"
   id="g128">
          <path
   style="fill:#4b677a;fill-opacity:1;fill-rule:nonzero;stroke:none"
   d="m 0,0 c -7.282,0 -13.185,-5.903 -13.185,-13.185 0,-7.281 5.903,-13.184 13.185,-13.184 7.282,0 13.185,5.903 13.185,13.184 C 13.185,-5.903 7.282,0 0,0"
   id="path126"
   inkscape:connector-curvature="0" />
        </g>
        <g
   transform="translate(359.0273,116.1719)"
   id="g132">
          <path
   style="fill:#4b677a;fill-opacity:1;fill-rule:nonzero;stroke:none"
   d="m 0,0 c -4.91,0 -8.891,-3.98 -8.891,-8.891 0,-4.91 3.981,-8.89 8.891,-8.89 4.911,0 8.891,3.98 8.891,8.89 C 8.891,-3.98 4.911,0 0,0"
   id="path130"
   inkscape:connector-curvature="0" />
        </g>
        <g
   transform="translate(359.0269,191.8945)"
   id="g136">
          <path
   style="fill:#4b677a;fill-opacity:1;fill-rule:nonzero;stroke:none"
   d="m 0,0 c -9.001,0 -16.298,-7.297 -16.298,-16.298 0,-9.001 7.297,-16.298 16.298,-16.298 9.003,0 16.299,7.297 16.299,16.298 C 16.299,-7.297 9.003,0 0,0"
   id="path134"
   inkscape:connector-curvature="0" />
        </g>
        <g
   transform="translate(415.4673,241.915)"
   id="g140">
          <path
   style="fill:#4b677a;fill-opacity:1;fill-rule:nonzero;stroke:none"
   d="m 0,0 c -11.496,0 -20.814,-9.319 -20.814,-20.814 0,-11.496 9.318,-20.815 20.814,-20.815 11.498,0 20.815,9.319 20.815,20.815 C 20.815,-9.319 11.498,0 0,0"
   id="path138"
   inkscape:connector-curvature="0" />
        </g>
        <g
   transform="translate(415.4673,191.8945)"
   id="g144">
          <path
   style="fill:#4b677a;fill-opacity:1;fill-rule:nonzero;stroke:none"
   d="m 0,0 c -10.1,0 -18.286,-8.188 -18.286,-18.286 0,-10.099 8.186,-18.286 18.286,-18.286 10.101,0 18.287,8.187 18.287,18.286 C 18.287,-8.188 10.101,0 0,0"
   id="path142"
   inkscape:connector-curvature="0" />
        </g>
        <g
   transform="translate(415.4673,147.2227)"
   id="g148">
          <path
   style="fill:#4b677a;fill-opacity:1;fill-rule:nonzero;stroke:none"
   d="m 0,0 c -9.403,0 -17.024,-7.622 -17.024,-17.023 0,-9.403 7.621,-17.025 17.024,-17.025 9.404,0 17.025,7.622 17.025,17.025 C 17.025,-7.622 9.404,0 0,0"
   id="path146"
   inkscape:connector-curvature="0" />
        </g>
        <g
   transform="translate(415.4673,104.5918)"
   id="g152">
          <path
   style="fill:#4b677a;fill-opacity:1;fill-rule:nonzero;stroke:none"
   d="m 0,0 c -8.794,0 -15.923,-7.129 -15.923,-15.923 0,-8.793 7.129,-15.923 15.923,-15.923 8.795,0 15.924,7.13 15.924,15.923 C 15.924,-7.129 8.795,0 0,0"
   id="path150"
   inkscape:connector-curvature="0" />
        </g>
        <g
   transform="translate(415.4673,64.1641)"
   id="g156">
          <path
   style="fill:#4b677a;fill-opacity:1;fill-rule:nonzero;stroke:none"
   d="m 0,0 c -7.294,0 -13.208,-5.914 -13.208,-13.208 0,-7.294 5.914,-13.208 13.208,-13.208 7.295,0 13.208,5.914 13.208,13.208 C 13.208,-5.914 7.295,0 0,0"
   id="path154"
   inkscape:connector-curvature="0" />
        </g>
        <g
   transform="translate(415.4673,29.166)"
   id="g160">
          <path
   style="fill:#4b677a;fill-opacity:1;fill-rule:nonzero;stroke:none"
   d="m 0,0 c -8.054,0 -14.583,-6.529 -14.583,-14.583 0,-8.054 6.529,-14.583 14.583,-14.583 8.055,0 14.584,6.529 14.584,14.583 C 14.584,-6.529 8.055,0 0,0"
   id="path158"
   inkscape:connector-curvature="0" />
        </g>
        <g
   transform="translate(471.6631,241.915)"
   id="g164">
          <path
   style="fill:#4b677a;fill-opacity:1;fill-rule:nonzero;stroke:none"
   d="m 0,0 c -11.496,0 -20.814,-9.319 -20.814,-20.814 0,-11.496 9.318,-20.815 20.814,-20.815 11.497,0 20.815,9.319 20.815,20.815 C 20.815,-9.319 11.497,0 0,0"
   id="path162"
   inkscape:connector-curvature="0" />
        </g>
        <g
   transform="translate(471.6631,191.8955)"
   id="g168">
          <path
   style="fill:#4b677a;fill-opacity:1;fill-rule:nonzero;stroke:none"
   d="m 0,0 c -10.1,0 -18.286,-8.188 -18.286,-18.287 0,-10.099 8.186,-18.286 18.286,-18.286 10.101,0 18.287,8.187 18.287,18.286 C 18.287,-8.188 10.101,0 0,0"
   id="path166"
   inkscape:connector-curvature="0" />
        </g>
        <g
   transform="translate(471.6631,147.2227)"
   id="g172">
          <path
   style="fill:#4b677a;fill-opacity:1;fill-rule:nonzero;stroke:none"
   d="m 0,0 c -8.656,0 -15.674,-7.018 -15.674,-15.673 0,-8.656 7.018,-15.674 15.674,-15.674 8.658,0 15.675,7.018 15.675,15.674 C 15.675,-7.018 8.658,0 0,0"
   id="path170"
   inkscape:connector-curvature="0" />
        </g>
        <g
   transform="translate(471.6631,107.2813)"
   id="g176">
          <path
   style="fill:#4b677a;fill-opacity:1;fill-rule:nonzero;stroke:none"
   d="m 0,0 c -5.936,0 -10.748,-4.812 -10.748,-10.748 0,-5.936 4.812,-10.748 10.748,-10.748 5.937,0 10.749,4.812 10.749,10.748 C 10.749,-4.812 5.937,0 0,0"
   id="path174"
   inkscape:connector-curvature="0" />
        </g>
        <g
   transform="translate(527.8613,241.915)"
   id="g180">
          <path
   style="fill:#4b677a;fill-opacity:1;fill-rule:nonzero;stroke:none"
   d="m 0,0 c -11.496,0 -20.814,-9.319 -20.814,-20.814 0,-11.496 9.318,-20.815 20.814,-20.815 11.497,0 20.815,9.319 20.815,20.815 C 20.815,-9.319 11.497,0 0,0"
   id="path178"
   inkscape:connector-curvature="0" />
        </g>
        <g
   transform="translate(527.8613,191.7041)"
   id="g184">
          <path
   style="fill:#4b677a;fill-opacity:1;fill-rule:nonzero;stroke:none"
   d="m 0,0 c -8.949,0 -16.202,-7.255 -16.202,-16.203 0,-8.948 7.253,-16.202 16.202,-16.202 8.949,0 16.203,7.254 16.203,16.202 C 16.203,-7.255 8.949,0 0,0"
   id="path182"
   inkscape:connector-curvature="0" />
        </g>
        <g
   transform="translate(584.0566,241.915)"
   id="g188">
          <path
   style="fill:#4b677a;fill-opacity:1;fill-rule:nonzero;stroke:none"
   d="m 0,0 c -11.496,0 -20.813,-9.319 -20.813,-20.814 0,-11.496 9.317,-20.815 20.813,-20.815 11.497,0 20.815,9.319 20.815,20.815 C 20.815,-9.319 11.497,0 0,0"
   id="path186"
   inkscape:connector-curvature="0" />
        </g>
        <g
   transform="translate(639.2432,241.915)"
   id="g192">
          <path
   style="fill:#4b677a;fill-opacity:1;fill-rule:nonzero;stroke:none"
   d="m 0,0 c -11.496,0 -20.813,-9.319 -20.813,-20.814 0,-11.496 9.317,-20.815 20.813,-20.815 11.498,0 20.815,9.319 20.815,20.815 C 20.815,-9.319 11.498,0 0,0"
   id="path190"
   inkscape:connector-curvature="0" />
        </g>
        
        
        
        
        
        
        
        
      </g>
</svg>